# xmcd
#
# Track frame offsets:
#	150
#	12957
#	24767
#	36930
#	48900
#	60700
#	74325
#	86425
#	99595
#	111510
#	125632
#	138875
#	152222
#	167072
#	179437
#	191077
#	200277
#	208157
#	216992
#	231000
#	244495
#	256909
#
# Disc length: 3540 seconds
#
# Revision: 1
# Processed by: cddbd v1.5.2PL0 Copyright (c) Steve Scherf et al.
# Submitted via: audiograbber 1.83.01
#
DISCID=400dd216
DTITLE=Various Artist - Singin´In The Saddle, Songs Of The American Cowboy
DYEAR=1900
DGENRE=Country
TTITLE0=Roy Rogers - Don´t Fence Me In
TTITLE1=Gene Autry - Back In The Saddle Again
TTITLE2=Sons of The Pioneers - Tumbling Tumbieweeds
TTITLE3=Tex Ritter and His Texans - Singin´In The Saddle
TTITLE4=Bob Wills and His Texas Playboys - New San Antonio Rose
TTITLE5=Roy Rogers - Rock Me To Sleep In My Saddle
TTITLE6=Gene Autry - Cowboy Blues
TTITLE7=Sons Of The Pioneer - Cool Water
TTITLE8=Frankie Laine and The Muleskinner - Mule Train
TTITLE9=Patsy Montana and The Prairie Ramblers - I Want To Be A Cowboy´s Sweethea
TTITLE9=rt
TTITLE10=Gene Autry - South Of The Border
TTITLE11=Tex Owens - Cattle Call
TTITLE12=Tex Ritter - (Take Me Back To My) Boots And Saddle
TTITLE13=Roy Rogers - On The Spanish Trail
TTITLE14=Sons Of The Pioneers - Cowboy Camp Meetin´
TTITLE15=Frankie Laine - Rawhide
TTITLE16=Gene Autry - The Yellow Rose Of Texas
TTITLE17=Foy Willing and The Riders Of The Purple Sage - Ragtime Cowboy Joe
TTITLE18=SSons Of The Pioneers - There's A Round-Up In The Sky
TTITLE19=Roy Rogers - That Pioneer Mother Of Mine
TTITLE20=Frankie Laine - High Noon
TTITLE21=Gene Autry - Tears On My Pillow
EXTD=Song Number 22 as listed on the jacket,says it is Gene Autry singing "Home
EXTD=On The Range".  This is wrong, actually it is Gene Autry singing "Tears O
EXTD=n My Pillow".
EXTT0=
EXTT1=
EXTT2=
EXTT3=
EXTT4=
EXTT5=
EXTT6=
EXTT7=
EXTT8=
EXTT9=
EXTT10=
EXTT11=
EXTT12=
EXTT13=
EXTT14=
EXTT15=
EXTT16=
EXTT17=
EXTT18=
EXTT19=
EXTT20=
EXTT21=Song Number 22 as listed on the jacket,says it is Gene Autry singing "Ho
EXTT21=me On The Range".  This is wrong, actually it is Gene Autry singing "Tea
EXTT21=rs On My Pillow".
PLAYORDER=
